<?xml version="1.0" encoding="iso-8859-1"?>
<!-- Generator: Adobe Illustrator 19.0.0, SVG Export Plug-In . SVG Version: 6.00 Build 0)  -->
<svg xmlns="http://www.w3.org/2000/svg" xmlns:xlink="http://www.w3.org/1999/xlink" version="1.1" id="Layer_1" x="0px" y="0px" viewBox="0 0 512.001 512.001" style="enable-background:new 0 0 512.001 512.001;" xml:space="preserve">
<path style="fill:#FFA233;" d="M64.376,114.394c6.36,6.362,15.148,10.297,24.854,10.297c19.414,0,35.151-15.738,35.151-35.151  S108.644,54.39,89.23,54.39c-19.412,0-35.151,15.737-35.151,35.15C54.078,99.246,58.015,108.034,64.376,114.394"/>
<path style="fill:#85C8EB;" d="M202.212,185.635h10.091c9.466,0,17.135-7.673,17.135-17.136c0-3.181-0.878-6.144-2.387-8.696h35.702  c9.466,0,17.137-7.674,17.137-17.137c0-9.466-7.671-17.139-17.137-17.139h-80.387c-9.464,0-17.137,7.673-17.137,17.139  c0,3.177,0.878,6.143,2.389,8.693h-35.7c-9.466,0-17.139,7.673-17.139,17.139c0,9.463,7.673,17.136,17.139,17.136h45.345"/>
<g>
	<polygon style="fill:#C17A49;" points="183.387,253.068 145.938,291.091 145.938,443.93 145.938,464.015 145.938,503.926    221.978,503.926 221.978,468.367 221.978,443.93 221.978,291.091  "/>
	<path style="fill:#C17A49;" d="M289.698,253.068l-37.449,38.022v152.839v10.397v49.598h76.043v-0.07   c-10.691-0.704-19.151-9.574-19.151-20.444c0-10.871,8.461-19.741,19.151-20.447V449.22v-5.291V291.091L289.698,253.068z"/>
	<polygon style="fill:#C17A49;" points="77.074,253.068 39.625,291.091 39.625,443.93 39.625,456.618 39.625,503.926    115.664,503.926 115.664,475.447 115.664,443.93 115.664,418.275 115.664,390.527 115.664,291.091  "/>
	<polygon style="fill:#C17A49;" points="77.074,253.068 39.625,291.091 39.625,443.93 39.625,456.618 39.625,503.926    115.664,503.926 115.664,475.447 115.664,443.93 115.664,418.275 115.664,390.527 115.664,291.091  "/>
</g>
<g style="opacity:0.1;">
	<polygon style="fill:#231F20;" points="171.315,435.891 171.315,265.324 145.938,291.091 145.938,443.93 145.938,464.015    145.938,503.926 171.315,503.926 171.315,458.667  "/>
</g>
<g style="opacity:0.1;">
	<polygon style="fill:#231F20;" points="277.629,434.285 277.629,265.324 252.249,291.091 252.249,443.93 252.249,454.327    252.249,503.926 277.629,503.926 277.629,446.354  "/>
</g>
<g style="opacity:0.1;">
	<polygon style="fill:#231F20;" points="65.004,461.157 65.004,446.866 65.004,274.721 80.761,256.701 77.074,253.068    39.625,291.091 39.625,443.93 39.625,456.618 39.625,503.926 65.004,503.926  "/>
</g>
<g>
	<circle style="fill:#8C6644;" cx="77.644" cy="352.658" r="11.767"/>
	<circle style="fill:#8C6644;" cx="183.957" cy="352.658" r="11.768"/>
	<circle style="fill:#8C6644;" cx="290.27" cy="352.658" r="11.768"/>
	<rect x="115.669" y="332.214" style="fill:#8C6644;" width="30.274" height="41.693"/>
	<rect x="221.982" y="332.214" style="fill:#8C6644;" width="30.274" height="41.693"/>
	<rect x="328.295" y="332.214" style="fill:#8C6644;" width="30.274" height="41.693"/>
	<rect x="9.353" y="332.214" style="fill:#8C6644;" width="30.274" height="41.693"/>
</g>
<path style="fill:#B0E046;" d="M503.615,150.277c0-30.25-17.428-56.419-42.781-69.055c0.973-4.275,1.502-8.717,1.502-13.287  c0-33.059-26.802-59.861-59.861-59.861s-59.858,26.802-59.858,59.861c0,3.789,0.366,7.487,1.039,11.078  c-22.533,1.956-40.22,20.841-40.22,43.883c0,15.471,7.99,29.06,20.051,36.925c-1.705,6.085-2.634,12.494-2.634,19.126  c0,39.068,31.671,70.742,70.737,70.742c21.419,0,40.593-9.534,53.562-24.571C478.728,216.769,503.615,186.434,503.615,150.277z"/>
<g style="opacity:0.1;">
	<path style="fill:#231F20;" d="M417.293,242.426c-39.066,0-70.737-31.673-70.737-70.742c0-4.522,0.441-8.936,1.257-13.217   c0.004-0.038,0.006-0.069,0.012-0.108c0.775-5.294-2.032-8.201-2.876-8.945c-0.065-0.053-0.126-0.108-0.189-0.161   c-0.032-0.025-0.051-0.039-0.051-0.039l0.002-0.004c-9.519-8.081-15.573-20.115-15.573-33.577c0-20.96,14.639-38.476,34.245-42.943   l-0.004-0.003c0,0,5.202-0.828,5.1-7.7c-0.001-0.069,0.003-0.121,0.003-0.185c-0.097-1.366-0.161-2.739-0.161-4.13   c0-22.647,12.58-42.354,31.131-52.522c-31.654,1.574-56.834,27.738-56.834,59.783c0,3.789,0.366,7.487,1.039,11.078   c-22.533,1.956-40.22,20.841-40.22,43.883c0,15.471,7.99,29.06,20.051,36.925c-1.705,6.085-2.634,12.494-2.634,19.126   c0,39.068,31.671,70.742,70.737,70.742c11.419,0,22.188-2.732,31.732-7.543C421.332,242.313,419.326,242.426,417.293,242.426z"/>
</g>
<path style="fill:#36CC6B;" d="M503.615,449.086c-3.686-1.835-7.832-2.884-12.231-2.884c-3.217,0-6.3,0.557-9.173,1.57  c-0.532-23.862-20.027-43.042-44.014-43.042c-21.637,0-39.615,15.606-43.326,36.177c-6.367-6.268-15.096-10.135-24.735-10.135  c-18.662,0-33.928,14.499-35.17,32.847c-1.697-0.454-3.474-0.72-5.313-0.72c-11.33,0-20.514,9.184-20.514,20.515  c0,11.329,9.184,20.514,20.514,20.514h173.962L503.615,449.086L503.615,449.086z"/>
<g>
	<path style="fill:#231F20;" d="M77.646,372.499c-10.94,0-19.842-8.901-19.842-19.844c0-10.94,8.901-19.842,19.842-19.842   s19.842,8.901,19.842,19.842C97.487,363.596,88.586,372.499,77.646,372.499z M77.646,348.963c-2.037,0-3.693,1.656-3.693,3.693   c0,2.038,1.656,3.695,3.693,3.695c2.037,0,3.693-1.657,3.693-3.695C81.338,350.619,79.683,348.963,77.646,348.963z"/>
	<path style="fill:#231F20;" d="M183.959,372.499c-10.941,0-19.844-8.901-19.844-19.844c0-10.94,8.902-19.842,19.844-19.842   c10.94,0,19.842,8.901,19.842,19.842C203.8,363.596,194.899,372.499,183.959,372.499z M183.959,348.963   c-2.038,0-3.695,1.656-3.695,3.693c0,2.038,1.657,3.695,3.695,3.695c2.037,0,3.693-1.657,3.693-3.695   C187.652,350.619,185.996,348.963,183.959,348.963z"/>
	<path style="fill:#231F20;" d="M290.27,372.499c-10.94,0-19.842-8.901-19.842-19.844c0-10.94,8.901-19.842,19.842-19.842   c10.941,0,19.844,8.901,19.844,19.842C310.114,363.596,301.211,372.499,290.27,372.499z M290.27,348.963   c-2.037,0-3.693,1.656-3.693,3.693c0,2.038,1.656,3.695,3.693,3.695c2.038,0,3.695-1.657,3.695-3.695   C293.965,350.619,292.308,348.963,290.27,348.963z"/>
	<path style="fill:#231F20;" d="M507.213,441.858c-4.973-2.475-10.298-3.73-15.829-3.73c-0.721,0-1.44,0.023-2.157,0.066   c-2.068-10.074-7.08-19.314-14.575-26.658c-9.794-9.596-22.74-14.88-36.453-14.88c-9.873,0-19.186,2.757-27.131,7.601v-52.224   l29.288-18.711c3.757-2.401,4.859-7.393,2.457-11.151c-2.4-3.756-7.394-4.855-11.151-2.457l-20.593,13.156v-77.569   c14.66-3.745,28.062-11.662,38.497-22.998c36.71-10.284,62.127-43.652,62.127-82.023c0-30.477-15.9-58.062-41.882-73.365   c0.399-2.983,0.602-5.985,0.602-8.977C470.409,30.476,439.934,0,402.475,0c-37.458,0-67.933,30.476-67.933,67.935   c0,1.47,0.05,2.948,0.147,4.427c-9.741,2.461-18.605,7.705-25.529,15.21c-8.899,9.646-13.8,22.191-13.8,35.324   c0,15.723,7.016,30.383,19.019,40.245c-1.064,5.203-1.602,10.499-1.602,15.805c0,43.459,35.355,78.816,78.812,78.816   c1.113,0,2.221-0.04,3.329-0.087v28.281l-7.641-4.88c-3.756-2.4-8.75-1.299-11.151,2.457c-2.401,3.758-1.301,8.752,2.457,11.151   l16.335,10.435v114.594c-1.696,2.527-3.181,5.215-4.424,8.044c-6.197-3.306-13.148-5.061-20.356-5.061   c-13.56,0-25.79,6.328-33.772,16.246v-56.961h22.196c4.46,0,8.074-3.614,8.074-8.074v-41.693c0-4.46-3.614-8.074-8.074-8.074   h-22.196v-33.048c0-2.163-0.868-4.234-2.407-5.752l-38.594-38.022c-1.51-1.489-3.547-2.322-5.667-2.322c-0.02,0-0.04,0-0.061,0   c-2.141,0.016-4.189,0.882-5.692,2.408l-37.45,38.022c-1.488,1.51-2.321,3.545-2.321,5.666v33.048h-14.122v-33.048   c0-2.163-0.868-4.234-2.407-5.752l-38.591-38.022c-1.51-1.489-3.547-2.322-5.667-2.322c-0.02,0-0.04,0-0.061,0   c-2.141,0.016-4.189,0.882-5.692,2.408l-37.449,38.022c-1.488,1.51-2.321,3.545-2.321,5.666v33.048H123.74v-33.048   c0-2.163-0.868-4.234-2.407-5.752l-38.591-38.022c-1.51-1.489-3.547-2.322-5.667-2.322c-0.02,0-0.04,0-0.061,0   c-2.141,0.016-4.189,0.882-5.692,2.408l-37.449,38.022c-1.488,1.51-2.321,3.545-2.321,5.666v33.048H9.353   c-4.46,0-8.074,3.614-8.074,8.074v41.693c0,4.46,3.614,8.074,8.074,8.074h22.196v113.871H9.353c-4.46,0-8.074,3.614-8.074,8.074   c0,4.46,3.614,8.074,8.074,8.074h30.27h76.041h30.273h76.041h30.27h76.043h1.363h41.787h132.174c4.46,0,8.074-3.614,8.074-8.074   v-54.839C511.69,446.022,509.957,443.222,507.213,441.858z M391.589,241.612c-34.553,0-62.663-28.112-62.663-62.667   c0-5.716,0.785-11.416,2.335-16.947c0.952-3.396-0.411-7.016-3.364-8.942c-10.261-6.691-16.388-17.966-16.388-30.162   c0-18.498,14.426-34.24,32.845-35.839c2.272-0.197,4.354-1.345,5.732-3.161c1.379-1.816,1.926-4.13,1.506-6.37   c-0.599-3.19-0.901-6.418-0.901-9.591c0-28.554,23.23-51.786,51.784-51.786c28.554,0,51.786,23.231,51.786,51.786   c0,3.839-0.437,7.707-1.299,11.495c-0.828,3.631,0.937,7.357,4.271,9.02c23.63,11.776,38.309,35.467,38.309,61.829   c0,31.79-21.522,59.343-52.337,67.003c-1.62,0.403-3.075,1.297-4.166,2.562c-7.55,8.755-17.25,15.137-27.97,18.651V121.486   c0-4.46-3.614-8.074-8.074-8.074c-4.46,0-8.074,3.614-8.074,8.074v58.382l-27.069-21.216c-3.51-2.747-8.585-2.134-11.336,1.374   c-2.751,3.511-2.135,8.586,1.374,11.336l37.03,29.025v41.134C393.812,241.58,392.703,241.612,391.589,241.612z M350.488,340.288   v25.544h-14.122v-25.544H350.488z M230.053,381.981h14.122v113.871h-14.122V381.981z M244.175,340.288v25.544h-14.122v-25.544   H244.175z M123.74,381.981h14.124v113.871H123.74V381.981z M137.864,340.288v25.544H123.74v-25.544H137.864z M17.428,365.833   v-25.544h14.122v25.544L17.428,365.833L17.428,365.833z M47.699,495.851V373.906v-41.692V294.4l29.461-29.911l30.431,29.983v37.743   v41.693v121.945H47.699V495.851z M154.012,495.851V373.906v-41.692V294.4l29.461-29.911l30.431,29.983v37.743v41.693v121.945   h-59.892V495.851z M260.324,373.949c0-0.014,0.002-0.028,0.002-0.043v-41.692c0-0.014-0.002-0.028-0.002-0.043V294.4l29.461-29.911   l30.433,29.983v37.743v41.693v82.517c-9.722,3.41-17.053,11.934-18.765,22.328c-0.01,0.058-0.02,0.115-0.03,0.173   c-0.107,0.67-0.187,1.347-0.245,2.032c-0.011,0.125-0.018,0.25-0.028,0.375c-0.049,0.688-0.084,1.379-0.084,2.079   c0,0.53,0.017,1.055,0.045,1.577c0.008,0.145,0.023,0.287,0.033,0.432c0.027,0.383,0.057,0.765,0.099,1.144   c0.016,0.15,0.038,0.297,0.057,0.446c0.047,0.38,0.101,0.758,0.165,1.134c0.022,0.128,0.045,0.255,0.069,0.382   c0.074,0.408,0.157,0.814,0.248,1.217c0.019,0.086,0.039,0.172,0.059,0.258c0.112,0.472,0.235,0.939,0.369,1.401   c0.004,0.014,0.008,0.027,0.012,0.041c0.448,1.526,1.012,3,1.696,4.409h-43.594V373.949H260.324z M495.541,495.851h-124.1h-41.787   c-0.23,0-0.455-0.023-0.684-0.034c-0.05-0.004-0.098-0.014-0.147-0.017c-4.064-0.268-7.579-2.49-9.645-5.709   c-0.008-0.012-0.014-0.025-0.022-0.037c-0.196-0.308-0.379-0.624-0.548-0.948c-0.017-0.033-0.032-0.068-0.049-0.101   c-0.156-0.306-0.301-0.618-0.432-0.938c-0.027-0.066-0.048-0.135-0.073-0.201c-0.113-0.293-0.221-0.588-0.312-0.89   c-0.034-0.114-0.058-0.233-0.089-0.348c-0.071-0.263-0.142-0.525-0.196-0.795c-0.038-0.187-0.059-0.38-0.087-0.571   c-0.031-0.206-0.07-0.409-0.09-0.618c-0.04-0.406-0.062-0.817-0.062-1.233s0.023-0.827,0.062-1.233   c0.02-0.209,0.059-0.413,0.09-0.619c0.028-0.191,0.049-0.382,0.087-0.569c0.054-0.269,0.125-0.532,0.196-0.796   c0.031-0.115,0.055-0.233,0.089-0.347c0.091-0.303,0.199-0.599,0.312-0.891c0.026-0.067,0.046-0.135,0.073-0.2   c0.13-0.32,0.276-0.632,0.432-0.938c0.017-0.033,0.032-0.069,0.049-0.102c0.169-0.325,0.353-0.642,0.549-0.951   c0.008-0.011,0.014-0.023,0.02-0.034c2.067-3.219,5.581-5.442,9.646-5.71c0.045-0.003,0.088-0.012,0.132-0.015   c0.233-0.013,0.463-0.036,0.698-0.036c1.036,0,2.121,0.151,3.225,0.446c2.333,0.623,4.822,0.172,6.785-1.233   c1.964-1.405,3.196-3.613,3.359-6.022c0.962-14.197,12.872-25.318,27.115-25.318c7.179,0,13.95,2.775,19.07,7.815   c2.134,2.1,5.257,2.849,8.107,1.942c2.854-0.905,4.972-3.316,5.504-6.261c0.992-5.496,3.204-10.504,6.322-14.776   c0.226-0.265,0.434-0.546,0.624-0.839c6.628-8.547,16.982-13.921,28.434-13.921c19.386,0,35.509,15.768,35.942,35.147   c0.058,2.588,1.353,4.992,3.482,6.463c2.129,1.472,4.834,1.836,7.278,0.971c3.415-1.205,7.155-1.429,10.642-0.659v41.127H495.541z"/>
	<path style="fill:#231F20;" d="M132.455,89.54c0-23.835-19.392-43.224-43.225-43.224S46.005,65.706,46.005,89.54   c0,11.544,4.497,22.398,12.662,30.563c8.164,8.166,19.019,12.663,30.564,12.663C113.064,132.765,132.455,113.375,132.455,89.54z    M62.153,89.54c0-14.929,12.146-27.075,27.076-27.075s27.076,12.146,27.076,27.075c0,14.93-12.146,27.076-27.076,27.076   c-7.231,0-14.03-2.816-19.144-7.932C64.97,103.569,62.153,96.77,62.153,89.54z"/>
	<path style="fill:#231F20;" d="M139.154,89.54c0,4.46,3.614,8.074,8.074,8.074h22.846c4.46,0,8.074-3.614,8.074-8.074   s-3.614-8.074-8.074-8.074h-22.846C142.769,81.466,139.154,85.08,139.154,89.54z"/>
	<path style="fill:#231F20;" d="M39.307,89.54c0-4.46-3.614-8.074-8.074-8.074H8.384c-4.46,0-8.074,3.614-8.074,8.074   s3.614,8.074,8.074,8.074h22.848C35.692,97.614,39.307,94,39.307,89.54z"/>
	<path style="fill:#231F20;" d="M130.241,56.604c2.066,0,4.133-0.788,5.71-2.364l16.157-16.157c3.153-3.154,3.153-8.266,0-11.419   c-3.154-3.152-8.266-3.152-11.419,0L124.532,42.82c-3.153,3.154-3.153,8.266,0,11.419   C126.108,55.816,128.175,56.604,130.241,56.604z"/>
	<path style="fill:#231F20;" d="M42.508,124.841l-16.155,16.157c-3.153,3.153-3.153,8.266,0.001,11.418   c1.576,1.576,3.643,2.364,5.709,2.364s4.133-0.788,5.71-2.365l16.155-16.157c3.153-3.153,3.153-8.266-0.001-11.418   C50.775,121.688,45.662,121.687,42.508,124.841z"/>
	<path style="fill:#231F20;" d="M89.23,39.615c4.46,0,8.074-3.614,8.074-8.074V8.695c0-4.46-3.614-8.074-8.074-8.074   s-8.074,3.614-8.074,8.074v22.846C81.155,36,84.77,39.615,89.23,39.615z"/>
	<path style="fill:#231F20;" d="M89.23,139.464c-4.46,0-8.074,3.614-8.074,8.074v22.848c0,4.46,3.614,8.074,8.074,8.074   s8.074-3.614,8.074-8.074v-22.848C97.304,143.078,93.689,139.464,89.23,139.464z"/>
	<path style="fill:#231F20;" d="M42.508,54.239c1.577,1.577,3.643,2.365,5.71,2.365c2.066,0,4.133-0.788,5.709-2.364   c3.154-3.153,3.154-8.266,0.001-11.418L37.773,26.665c-3.153-3.153-8.266-3.154-11.418-0.001C23.2,29.817,23.2,34.93,26.354,38.082   L42.508,54.239z"/>
	<path style="fill:#231F20;" d="M262.754,117.453h-80.387c-13.902,0-25.212,11.311-25.212,25.214c0,0.206,0.002,0.413,0.008,0.619   h-2.771l-18.441-18.442c-3.153-3.153-8.266-3.154-11.418-0.001c-3.154,3.153-3.154,8.266-0.001,11.418l7.032,7.033   c-13.739,0.192-24.858,11.42-24.858,25.205c0,13.901,11.311,25.21,25.214,25.21h45.345c4.46,0,8.074-3.614,8.074-8.074   s-3.614-8.074-8.074-8.074H131.92c-4.999,0-9.065-4.064-9.065-9.062c0-4.999,4.066-9.065,9.065-9.065h35.7   c2.9,0,5.578-1.556,7.015-4.075c1.436-2.52,1.411-5.617-0.067-8.112c-0.838-1.415-1.263-2.956-1.263-4.581   c0-4.999,4.065-9.065,9.063-9.065h80.387c4.998,0,9.063,4.066,9.063,9.065c0,4.998-4.065,9.063-9.063,9.063h-35.702   c-2.899,0-5.577,1.554-7.013,4.073c-1.437,2.518-1.414,5.613,0.061,8.109c0.839,1.419,1.264,2.963,1.264,4.588   c0,4.998-4.064,9.062-9.061,9.062h-10.091c-4.46,0-8.074,3.614-8.074,8.074s3.614,8.074,8.074,8.074h10.091   c13.901,0,25.209-11.31,25.209-25.21c0-0.207-0.002-0.414-0.008-0.621h25.248c13.902,0,25.212-11.31,25.212-25.212   C287.965,128.763,276.656,117.453,262.754,117.453z"/>
	<path style="fill:#231F20;" d="M231.095,227.529h-47.138c-4.46,0-8.074-3.614-8.074-8.074c0-4.46,3.614-8.074,8.074-8.074h47.138   c4.46,0,8.074,3.614,8.074,8.074C239.17,223.914,235.556,227.529,231.095,227.529z"/>
</g>
<g>
</g>
<g>
</g>
<g>
</g>
<g>
</g>
<g>
</g>
<g>
</g>
<g>
</g>
<g>
</g>
<g>
</g>
<g>
</g>
<g>
</g>
<g>
</g>
<g>
</g>
<g>
</g>
<g>
</g>
</svg>
